# Blender 5.0.1
# www.blender.org
mtllib Deur.mtl
o Cube
v -0.169042 0.016740 0.726101
v -0.169042 2.203795 0.726101
v -0.169042 0.016740 -0.726101
v -0.169042 2.203795 -0.726101
v 0.169042 0.016740 0.726101
v 0.169042 2.203795 0.726101
v 0.169042 0.016740 -0.726101
v 0.169042 2.203795 -0.726101
v -0.169042 0.016740 0.000000
v -0.169042 2.350210 0.000000
v 0.169042 0.016740 0.000000
v 0.169042 2.350210 0.000000
v -0.169042 0.016740 0.363050
v 0.169042 2.350210 0.363050
v -0.169042 2.350210 0.363050
v 0.169042 0.016740 0.363050
v -0.169042 2.350210 -0.363050
v 0.169042 0.016740 -0.363050
v -0.169042 0.016740 -0.363050
v 0.169042 2.350210 -0.363050
vn -1.0000 -0.0000 -0.0000
vn -0.0000 -0.0000 -1.0000
vn 1.0000 -0.0000 -0.0000
vn -0.0000 -0.0000 1.0000
vn -0.0000 -1.0000 -0.0000
vn -0.0000 0.9274 0.3740
vn -0.0000 1.0000 -0.0000
vn -0.0000 0.9274 -0.3740
vt 0.375000 0.187500
vt 0.625000 0.187500
vt 0.625000 0.250000
vt 0.375000 0.250000
vt 0.625000 0.500000
vt 0.375000 0.500000
vt 0.375000 0.687500
vt 0.625000 0.687500
vt 0.625000 0.750000
vt 0.375000 0.750000
vt 0.625000 1.000000
vt 0.375000 1.000000
vt 0.125000 0.687500
vt 0.125000 0.750000
vt 0.875000 0.687500
vt 0.875000 0.750000
vt 0.625000 0.562500
vt 0.875000 0.562500
vt 0.875000 0.625000
vt 0.625000 0.625000
vt 0.125000 0.562500
vt 0.375000 0.562500
vt 0.375000 0.625000
vt 0.125000 0.625000
vt 0.375000 0.062500
vt 0.625000 0.062500
vt 0.625000 0.125000
vt 0.375000 0.125000
vt 0.375000 0.000000
vt 0.625000 0.000000
vt 0.125000 0.500000
vt 0.875000 0.500000
s 0
usemtl Material.006
f 19/1/1 17/2/1 4/3/1 3/4/1
f 3/4/2 4/3/2 8/5/2 7/6/2
f 16/7/3 14/8/3 6/9/3 5/10/3
f 5/10/4 6/9/4 2/11/4 1/12/4
f 13/13/5 16/7/5 5/10/5 1/14/5
f 14/8/6 15/15/6 2/16/6 6/9/6
f 20/17/7 17/18/7 10/19/7 12/20/7
f 19/21/5 18/22/5 11/23/5 9/24/5
f 18/22/3 20/17/3 12/20/3 11/23/3
f 13/25/1 15/26/1 10/27/1 9/28/1
f 1/29/1 2/30/1 15/26/1 13/25/1
f 12/20/7 10/19/7 15/15/7 14/8/7
f 9/24/5 11/23/5 16/7/5 13/13/5
f 11/23/3 12/20/3 14/8/3 16/7/3
f 7/6/3 8/5/3 20/17/3 18/22/3
f 3/31/5 7/6/5 18/22/5 19/21/5
f 8/5/8 4/32/8 17/18/8 20/17/8
f 9/28/1 10/27/1 17/2/1 19/1/1
o Cylinder.001
v 0.000000 0.007167 -0.949539
v 0.000000 2.189060 -0.949539
v 0.041864 0.007167 -0.941212
v 0.041864 2.189060 -0.941212
v 0.077354 0.007167 -0.917498
v 0.077354 2.189060 -0.917498
v 0.101068 0.007167 -0.882008
v 0.101068 2.189060 -0.882008
v 0.109395 0.007167 -0.840144
v 0.109395 2.189060 -0.840144
v 0.101068 0.007167 -0.798280
v 0.101068 2.189060 -0.798280
v 0.077354 0.007167 -0.762790
v 0.077354 2.189060 -0.762790
v 0.041864 0.007167 -0.739076
v 0.041864 2.189060 -0.739076
v 0.000000 0.007167 -0.730749
v 0.000000 2.189060 -0.730749
v -0.041864 0.007167 -0.739076
v -0.041864 2.189060 -0.739076
v -0.077354 0.007167 -0.762790
v -0.077354 2.189060 -0.762790
v -0.101068 0.007167 -0.798280
v -0.101068 2.189060 -0.798280
v -0.109395 0.007167 -0.840144
v -0.109395 2.189060 -0.840144
v -0.101068 0.007167 -0.882008
v -0.101068 2.189060 -0.882008
v -0.077354 0.007167 -0.917498
v -0.077354 2.189060 -0.917498
v -0.041864 0.007167 -0.941212
v -0.041864 2.189060 -0.941212
vn 0.1951 -0.0000 -0.9808
vn 0.5556 -0.0000 -0.8315
vn 0.8315 -0.0000 -0.5556
vn 0.9808 -0.0000 -0.1951
vn 0.9808 -0.0000 0.1951
vn 0.8315 -0.0000 0.5556
vn 0.5556 -0.0000 0.8315
vn 0.1951 -0.0000 0.9808
vn -0.1951 -0.0000 0.9808
vn -0.5556 -0.0000 0.8315
vn -0.8315 -0.0000 0.5556
vn -0.9808 -0.0000 0.1951
vn -0.9808 -0.0000 -0.1951
vn -0.8315 -0.0000 -0.5556
vn -0.0000 1.0000 -0.0000
vn -0.5556 -0.0000 -0.8315
vn -0.1951 -0.0000 -0.9808
vn -0.0000 -1.0000 -0.0000
vt 1.000000 0.500000
vt 1.000000 1.000000
vt 0.937500 1.000000
vt 0.937500 0.500000
vt 0.875000 1.000000
vt 0.875000 0.500000
vt 0.812500 1.000000
vt 0.812500 0.500000
vt 0.750000 1.000000
vt 0.750000 0.500000
vt 0.687500 1.000000
vt 0.687500 0.500000
vt 0.625000 1.000000
vt 0.625000 0.500000
vt 0.562500 1.000000
vt 0.562500 0.500000
vt 0.500000 1.000000
vt 0.500000 0.500000
vt 0.437500 1.000000
vt 0.437500 0.500000
vt 0.375000 1.000000
vt 0.375000 0.500000
vt 0.312500 1.000000
vt 0.312500 0.500000
vt 0.250000 1.000000
vt 0.250000 0.500000
vt 0.187500 1.000000
vt 0.187500 0.500000
vt 0.125000 1.000000
vt 0.125000 0.500000
vt 0.341844 0.471731
vt 0.250000 0.490000
vt 0.158156 0.471731
vt 0.080294 0.419706
vt 0.028269 0.341844
vt 0.010000 0.250000
vt 0.028269 0.158156
vt 0.080294 0.080294
vt 0.158156 0.028269
vt 0.250000 0.010000
vt 0.341844 0.028269
vt 0.419706 0.080294
vt 0.471731 0.158156
vt 0.490000 0.250000
vt 0.471731 0.341844
vt 0.419706 0.419706
vt 0.062500 1.000000
vt 0.062500 0.500000
vt 0.000000 1.000000
vt 0.000000 0.500000
vt 0.750000 0.490000
vt 0.841844 0.471731
vt 0.919706 0.419706
vt 0.971731 0.341844
vt 0.990000 0.250000
vt 0.971731 0.158156
vt 0.919706 0.080294
vt 0.841844 0.028269
vt 0.750000 0.010000
vt 0.658156 0.028269
vt 0.580294 0.080294
vt 0.528269 0.158156
vt 0.510000 0.250000
vt 0.528269 0.341844
vt 0.580294 0.419706
vt 0.658156 0.471731
s 0
usemtl Paalmaterial
f 21/33/9 22/34/9 24/35/9 23/36/9
f 23/36/10 24/35/10 26/37/10 25/38/10
f 25/38/11 26/37/11 28/39/11 27/40/11
f 27/40/12 28/39/12 30/41/12 29/42/12
f 29/42/13 30/41/13 32/43/13 31/44/13
f 31/44/14 32/43/14 34/45/14 33/46/14
f 33/46/15 34/45/15 36/47/15 35/48/15
f 35/48/16 36/47/16 38/49/16 37/50/16
f 37/50/17 38/49/17 40/51/17 39/52/17
f 39/52/18 40/51/18 42/53/18 41/54/18
f 41/54/19 42/53/19 44/55/19 43/56/19
f 43/56/20 44/55/20 46/57/20 45/58/20
f 45/58/21 46/57/21 48/59/21 47/60/21
f 47/60/22 48/59/22 50/61/22 49/62/22
f 24/63/23 22/64/23 52/65/23 50/66/23 48/67/23 46/68/23 44/69/23 42/70/23 40/71/23 38/72/23 36/73/23 34/74/23 32/75/23 30/76/23 28/77/23 26/78/23
f 49/62/24 50/61/24 52/79/24 51/80/24
f 51/80/25 52/79/25 22/81/25 21/82/25
f 21/83/26 23/84/26 25/85/26 27/86/26 29/87/26 31/88/26 33/89/26 35/90/26 37/91/26 39/92/26 41/93/26 43/94/26 45/95/26 47/96/26 49/97/26 51/98/26
o Cylinder.002
v 0.002879 1.213974 0.307595
v -0.220564 1.262483 0.415150
v 0.002879 1.143422 0.321629
v -0.220564 1.233091 0.420996
v 0.002879 1.083612 0.361593
v -0.220564 1.208174 0.437646
v 0.002879 1.043648 0.421403
v -0.220564 1.191524 0.462563
v 0.002879 1.029614 0.491955
v 0.002879 1.043648 0.562506
v -0.220564 1.191524 0.521347
v 0.002879 1.083612 0.622317
v -0.220564 1.208174 0.546264
v 0.002879 1.143422 0.662281
v -0.220564 1.233091 0.562913
v 0.002879 1.213974 0.676315
v -0.220564 1.262483 0.568760
v 0.002879 1.284525 0.662281
v -0.220564 1.291875 0.562913
v 0.002879 1.344336 0.622317
v -0.220564 1.316792 0.546264
v 0.002879 1.384300 0.562506
v -0.220564 1.333441 0.521347
v 0.002879 1.398334 0.491955
v -0.220564 1.339288 0.491955
v 0.002879 1.384300 0.421403
v -0.220564 1.333441 0.462563
v 0.002879 1.344336 0.361593
v -0.220564 1.316792 0.437646
v 0.002879 1.284525 0.321629
v -0.220564 1.291875 0.420996
v -0.220564 1.143422 0.321629
v -0.220564 1.213974 0.307595
v -0.220564 1.083612 0.361593
v -0.220564 1.043648 0.421403
v -0.220564 1.029614 0.491955
v -0.220564 1.043648 0.562506
v -0.220564 1.083612 0.622317
v -0.220564 1.143422 0.662281
v -0.220564 1.213974 0.676315
v -0.220564 1.284525 0.662281
v -0.220564 1.344336 0.622317
v -0.220564 1.384300 0.562506
v -0.220564 1.398334 0.491955
v -0.220564 1.384300 0.421403
v -0.220564 1.344336 0.361593
v -0.220564 1.284525 0.321629
v -0.220564 1.138906 0.535993
v -0.220564 1.132433 0.537794
v -0.220564 1.140761 0.448434
v -0.220564 1.123536 0.491955
v -0.220564 1.138343 0.534382
v -0.220564 1.138343 0.534382
v -0.160775 1.233091 0.420996
v -0.160775 1.262483 0.415150
v -0.160775 1.208174 0.437646
v -0.160775 1.191524 0.462563
v -0.160775 1.208174 0.546264
v -0.160775 1.191524 0.521347
v -0.160775 1.233091 0.562913
v -0.160775 1.262483 0.568760
v -0.160775 1.291875 0.562913
v -0.160775 1.316792 0.546264
v -0.160775 1.333441 0.521347
v -0.160775 1.339288 0.491955
v -0.160775 1.333441 0.462563
v -0.160775 1.316792 0.437646
v -0.160775 1.291875 0.420996
v -0.160775 1.138906 0.535993
v -0.160775 1.140761 0.448434
v -0.160775 1.123536 0.491955
v -0.160775 1.138343 0.534382
v -0.160775 1.138343 0.534382
vn -0.0000 -0.1951 -0.9808
vn -0.0000 -0.5556 -0.8315
vn -0.0000 -0.8315 -0.5556
vn -0.0000 -0.9808 -0.1951
vn -0.0000 -0.9808 0.1951
vn -0.0000 -0.8315 0.5556
vn -0.0000 -0.5556 0.8315
vn -0.0000 -0.1951 0.9808
vn -0.0000 0.1951 0.9808
vn -0.0000 0.5556 0.8315
vn -0.0000 0.8315 0.5556
vn -0.0000 0.9808 0.1951
vn -0.0000 0.9808 -0.1951
vn -0.0000 0.8315 -0.5556
vn -0.0000 0.5556 -0.8315
vn -0.0000 0.1951 -0.9808
vn 1.0000 -0.0000 -0.0000
vn -1.0000 -0.0000 -0.0000
vn -0.0000 -0.2681 -0.9634
vn -0.0000 0.9442 -0.3295
vn -0.0000 -0.2681 0.9634
vn -0.0000 0.9298 0.3680
vn -0.0000 0.9060 -0.4232
vt 1.000000 0.500000
vt 1.000000 1.000000
vt 0.937500 1.000000
vt 0.937500 0.500000
vt 0.875000 1.000000
vt 0.875000 0.500000
vt 0.812500 1.000000
vt 0.812500 0.500000
vt 0.750000 1.000000
vt 0.750000 0.500000
vt 0.687500 1.000000
vt 0.687500 0.500000
vt 0.625000 1.000000
vt 0.625000 0.500000
vt 0.562500 1.000000
vt 0.562500 0.500000
vt 0.500000 1.000000
vt 0.500000 0.500000
vt 0.437500 1.000000
vt 0.437500 0.500000
vt 0.375000 1.000000
vt 0.375000 0.500000
vt 0.312500 1.000000
vt 0.312500 0.500000
vt 0.250000 1.000000
vt 0.250000 0.500000
vt 0.187500 1.000000
vt 0.187500 0.500000
vt 0.125000 1.000000
vt 0.125000 0.500000
vt 0.320700 0.179300
vt 0.342374 0.211737
vt 0.062500 1.000000
vt 0.062500 0.500000
vt 0.000000 1.000000
vt 0.000000 0.500000
vt 0.750000 0.490000
vt 0.841844 0.471731
vt 0.919706 0.419706
vt 0.971731 0.341844
vt 0.990000 0.250000
vt 0.971731 0.158156
vt 0.919706 0.080294
vt 0.841844 0.028269
vt 0.750000 0.010000
vt 0.658156 0.028269
vt 0.580294 0.080294
vt 0.528269 0.158156
vt 0.510000 0.250000
vt 0.528269 0.341844
vt 0.580294 0.419706
vt 0.658156 0.471731
vt 0.250000 0.349985
vt 0.288263 0.342374
vt 0.341844 0.471731
vt 0.250000 0.490000
vt 0.320700 0.320700
vt 0.419706 0.419706
vt 0.342374 0.288263
vt 0.386780 0.306656
vt 0.471731 0.341844
vt 0.157626 0.288263
vt 0.150015 0.250000
vt 0.157626 0.211737
vt 0.419706 0.080294
vt 0.471731 0.158156
vt 0.394065 0.190326
vt 0.388403 0.192672
vt 0.288262 0.157626
vt 0.341844 0.028269
vt 0.250000 0.150015
vt 0.250000 0.010000
vt 0.211737 0.157626
vt 0.158156 0.028269
vt 0.179300 0.179300
vt 0.080294 0.080294
vt 0.028269 0.158156
vt 0.010000 0.250000
vt 0.028269 0.341844
vt 0.179300 0.320700
vt 0.080294 0.419706
vt 0.211737 0.342374
vt 0.158156 0.471731
vt 0.405736 0.250000
vt 0.490000 0.250000
vt 0.389037 0.194769
vt 0.389037 0.194769
s 0
usemtl Material.006
f 53/99/27 55/102/27 84/101/27 85/100/27
f 55/102/28 57/104/28 86/103/28 84/101/28
f 57/104/29 59/106/29 87/105/29 86/103/29
f 59/106/30 61/108/30 88/107/30 87/105/30
f 61/108/31 62/110/31 89/109/31 88/107/31
f 62/110/32 64/112/32 90/111/32 89/109/32
f 64/112/33 66/114/33 91/113/33 90/111/33
f 66/114/34 68/116/34 92/115/34 91/113/34
f 68/116/35 70/118/35 93/117/35 92/115/35
f 70/118/36 72/120/36 94/119/36 93/117/36
f 72/120/37 74/122/37 95/121/37 94/119/37
f 74/122/38 76/124/38 96/123/38 95/121/38
f 76/124/39 78/126/39 97/125/39 96/123/39
f 78/126/40 80/128/40 98/127/40 97/125/40
f 65/129/40 110/129/40 111/130/40 63/130/40
f 80/128/41 82/132/41 99/131/41 98/127/41
f 82/132/42 53/134/42 85/133/42 99/131/42
f 53/135/43 82/150/43 80/149/43 78/148/43 76/147/43 74/146/43 72/145/43 70/144/43 68/143/43 66/142/43 64/141/43 62/140/43 61/139/43 59/138/43 57/137/43 55/136/43
f 54/151/44 85/154/44 84/153/44 56/152/44
f 56/152/44 84/153/44 86/156/44 58/155/44
f 58/155/44 86/156/44 87/159/44 102/158/44 60/157/44
f 79/160/31 118/160/31 117/161/31 77/161/31
f 77/161/30 117/161/30 116/162/30 75/162/30
f 63/130/44 100/166/44 101/165/44 89/164/44 90/163/44 65/129/44
f 65/129/44 90/163/44 91/168/44 67/167/44
f 67/167/44 91/168/44 92/170/44 69/169/44
f 69/169/44 92/170/44 93/172/44 71/171/44
f 71/171/44 93/172/44 94/174/44 73/173/44
f 73/173/44 94/174/44 95/175/44 75/162/44
f 75/162/44 95/175/44 96/176/44 77/161/44
f 77/161/44 96/176/44 97/177/44 79/160/44
f 79/160/44 97/177/44 98/179/44 81/178/44
f 81/178/44 98/179/44 99/181/44 83/180/44
f 83/180/44 99/181/44 85/154/44 54/151/44
f 102/158/44 87/159/44 88/183/44 103/182/44
f 63/130/45 111/130/45 121/166/45 100/166/45
f 75/162/29 116/162/29 115/173/29 73/173/29
f 103/182/44 88/183/44 89/164/44 101/165/44 105/184/44
f 101/165/44 100/166/44 104/185/44 103/182/44 105/184/44
f 100/166/46 121/166/46 125/184/46 105/184/46
f 100/166/44 105/184/44 104/185/44
f 81/178/32 119/178/32 118/160/32 79/160/32
f 67/167/41 112/167/41 110/129/41 65/129/41
f 102/158/47 122/158/47 109/157/47 60/157/47
f 83/180/33 120/180/33 119/178/33 81/178/33
f 69/169/42 113/169/42 112/167/42 67/167/42
f 56/152/35 106/152/35 107/151/35 54/151/35
f 54/151/34 107/151/34 120/180/34 83/180/34
f 104/185/46 124/185/46 123/182/46 103/182/46
f 71/171/27 114/171/27 113/169/27 69/169/27
f 103/182/48 123/182/48 122/158/48 102/158/48
f 58/155/36 108/155/36 106/152/36 56/152/36
f 105/184/49 125/184/49 124/185/49 104/185/49
f 73/173/28 115/173/28 114/171/28 71/171/28
f 60/157/37 109/157/37 108/155/37 58/155/37
o Cylinder.003
v -0.020799 1.213974 0.297003
v -0.244242 1.265270 0.410737
v -0.020799 1.139369 0.311843
v -0.244242 1.234189 0.416920
v -0.020799 1.076122 0.354103
v -0.244242 1.207840 0.434525
v -0.020799 1.033862 0.417350
v -0.244242 1.190235 0.460874
v -0.020799 1.019022 0.491955
v -0.020799 1.033862 0.566560
v -0.244242 1.190235 0.523036
v -0.020799 1.076122 0.629807
v -0.244242 1.207840 0.549384
v -0.020799 1.139369 0.672067
v -0.244242 1.234189 0.566990
v -0.020799 1.213974 0.686907
v -0.244242 1.265270 0.573173
v -0.020799 1.288579 0.672067
v -0.244242 1.296350 0.566990
v -0.020799 1.351826 0.629807
v -0.244242 1.322699 0.549384
v -0.020799 1.394086 0.566560
v -0.244242 1.340305 0.523036
v -0.020799 1.408926 0.491955
v -0.244242 1.346488 0.491955
v -0.020799 1.394086 0.417350
v -0.244242 1.340305 0.460874
v -0.020799 1.351826 0.354103
v -0.244242 1.322699 0.434525
v -0.020799 1.288579 0.311843
v -0.244242 1.296350 0.416920
v -0.244242 1.139369 0.311843
v -0.244242 1.213974 0.297003
v -0.244242 1.076122 0.354103
v -0.244242 1.033862 0.417350
v -0.244242 1.019022 0.491955
v -0.244242 1.033862 0.566560
v -0.244242 1.076122 0.629807
v -0.244242 1.139369 0.672067
v -0.244242 1.213974 0.686907
v -0.244242 1.288579 0.672067
v -0.244242 1.351826 0.629807
v -0.244242 1.394086 0.566560
v -0.244242 1.408926 0.491955
v -0.244242 1.394086 0.417350
v -0.244242 1.351826 0.354103
v -0.244242 1.288579 0.311843
v -0.244242 1.134593 0.538523
v -0.244242 1.127748 0.540428
v -0.244242 1.136555 0.445933
v -0.244242 1.118340 0.491955
v -0.244242 1.133998 0.536819
v -0.244242 1.133998 0.536819
v -0.184454 1.234189 0.416920
v -0.184454 1.265270 0.410737
v -0.184454 1.207840 0.434525
v -0.184454 1.190235 0.460874
v -0.184454 1.207840 0.549384
v -0.184454 1.190235 0.523036
v -0.184454 1.234189 0.566990
v -0.184454 1.265270 0.573173
v -0.184454 1.296350 0.566990
v -0.184454 1.322699 0.549384
v -0.184454 1.340305 0.523036
v -0.184454 1.346488 0.491955
v -0.184454 1.340305 0.460874
v -0.184454 1.322699 0.434525
v -0.184454 1.296350 0.416920
v -0.184454 1.134593 0.538523
v -0.184454 1.136555 0.445933
v -0.184454 1.118340 0.491955
v -0.184454 1.133998 0.536819
v -0.184454 1.133998 0.536819
vn -0.0000 -0.1951 -0.9808
vn -0.0000 -0.5556 -0.8315
vn -0.0000 -0.8315 -0.5556
vn -0.0000 -0.9808 -0.1951
vn -0.0000 -0.9808 0.1951
vn -0.0000 -0.8315 0.5556
vn -0.0000 -0.5556 0.8315
vn -0.0000 -0.1951 0.9808
vn -0.0000 0.1951 0.9808
vn -0.0000 0.5556 0.8315
vn -0.0000 0.8315 0.5556
vn -0.0000 0.9808 0.1951
vn -0.0000 0.9808 -0.1951
vn -0.0000 0.8315 -0.5556
vn -0.0000 0.5556 -0.8315
vn -0.0000 0.1951 -0.9808
vn 1.0000 -0.0000 -0.0000
vn -1.0000 -0.0000 -0.0000
vn -0.0000 -0.2681 -0.9634
vn -0.0000 0.9442 -0.3295
vn -0.0000 -0.2681 0.9634
vn -0.0000 0.9298 0.3680
vn -0.0000 0.9060 -0.4232
vt 1.000000 0.500000
vt 1.000000 1.000000
vt 0.937500 1.000000
vt 0.937500 0.500000
vt 0.875000 1.000000
vt 0.875000 0.500000
vt 0.812500 1.000000
vt 0.812500 0.500000
vt 0.750000 1.000000
vt 0.750000 0.500000
vt 0.687500 1.000000
vt 0.687500 0.500000
vt 0.625000 1.000000
vt 0.625000 0.500000
vt 0.562500 1.000000
vt 0.562500 0.500000
vt 0.500000 1.000000
vt 0.500000 0.500000
vt 0.437500 1.000000
vt 0.437500 0.500000
vt 0.375000 1.000000
vt 0.375000 0.500000
vt 0.312500 1.000000
vt 0.312500 0.500000
vt 0.250000 1.000000
vt 0.250000 0.500000
vt 0.187500 1.000000
vt 0.187500 0.500000
vt 0.125000 1.000000
vt 0.125000 0.500000
vt 0.320700 0.179300
vt 0.342374 0.211737
vt 0.062500 1.000000
vt 0.062500 0.500000
vt 0.000000 1.000000
vt 0.000000 0.500000
vt 0.750000 0.490000
vt 0.841844 0.471731
vt 0.919706 0.419706
vt 0.971731 0.341844
vt 0.990000 0.250000
vt 0.971731 0.158156
vt 0.919706 0.080294
vt 0.841844 0.028269
vt 0.750000 0.010000
vt 0.658156 0.028269
vt 0.580294 0.080294
vt 0.528269 0.158156
vt 0.510000 0.250000
vt 0.528269 0.341844
vt 0.580294 0.419706
vt 0.658156 0.471731
vt 0.250000 0.349985
vt 0.288263 0.342374
vt 0.341844 0.471731
vt 0.250000 0.490000
vt 0.320700 0.320700
vt 0.419706 0.419706
vt 0.342374 0.288263
vt 0.386780 0.306656
vt 0.471731 0.341844
vt 0.157626 0.288263
vt 0.150015 0.250000
vt 0.157626 0.211737
vt 0.419706 0.080294
vt 0.471731 0.158156
vt 0.394065 0.190326
vt 0.388403 0.192672
vt 0.288262 0.157626
vt 0.341844 0.028269
vt 0.250000 0.150015
vt 0.250000 0.010000
vt 0.211737 0.157626
vt 0.158156 0.028269
vt 0.179300 0.179300
vt 0.080294 0.080294
vt 0.028269 0.158156
vt 0.010000 0.250000
vt 0.028269 0.341844
vt 0.179300 0.320700
vt 0.080294 0.419706
vt 0.211737 0.342374
vt 0.158156 0.471731
vt 0.405736 0.250000
vt 0.490000 0.250000
vt 0.389037 0.194769
vt 0.389037 0.194769
s 0
usemtl Material.004
f 126/186/50 128/189/50 157/188/50 158/187/50
f 128/189/51 130/191/51 159/190/51 157/188/51
f 130/191/52 132/193/52 160/192/52 159/190/52
f 132/193/53 134/195/53 161/194/53 160/192/53
f 134/195/54 135/197/54 162/196/54 161/194/54
f 135/197/55 137/199/55 163/198/55 162/196/55
f 137/199/56 139/201/56 164/200/56 163/198/56
f 139/201/57 141/203/57 165/202/57 164/200/57
f 141/203/58 143/205/58 166/204/58 165/202/58
f 143/205/59 145/207/59 167/206/59 166/204/59
f 145/207/60 147/209/60 168/208/60 167/206/60
f 147/209/61 149/211/61 169/210/61 168/208/61
f 149/211/62 151/213/62 170/212/62 169/210/62
f 151/213/63 153/215/63 171/214/63 170/212/63
f 138/216/63 183/216/63 184/217/63 136/217/63
f 153/215/64 155/219/64 172/218/64 171/214/64
f 155/219/65 126/221/65 158/220/65 172/218/65
f 126/222/66 155/237/66 153/236/66 151/235/66 149/234/66 147/233/66 145/232/66 143/231/66 141/230/66 139/229/66 137/228/66 135/227/66 134/226/66 132/225/66 130/224/66 128/223/66
f 127/238/67 158/241/67 157/240/67 129/239/67
f 129/239/67 157/240/67 159/243/67 131/242/67
f 131/242/67 159/243/67 160/246/67 175/245/67 133/244/67
f 152/247/54 191/247/54 190/248/54 150/248/54
f 150/248/53 190/248/53 189/249/53 148/249/53
f 136/217/67 173/253/67 174/252/67 162/251/67 163/250/67 138/216/67
f 138/216/67 163/250/67 164/255/67 140/254/67
f 140/254/67 164/255/67 165/257/67 142/256/67
f 142/256/67 165/257/67 166/259/67 144/258/67
f 144/258/67 166/259/67 167/261/67 146/260/67
f 146/260/67 167/261/67 168/262/67 148/249/67
f 148/249/67 168/262/67 169/263/67 150/248/67
f 150/248/67 169/263/67 170/264/67 152/247/67
f 152/247/67 170/264/67 171/266/67 154/265/67
f 154/265/67 171/266/67 172/268/67 156/267/67
f 156/267/67 172/268/67 158/241/67 127/238/67
f 175/245/67 160/246/67 161/270/67 176/269/67
f 136/217/68 184/217/68 194/253/68 173/253/68
f 148/249/52 189/249/52 188/260/52 146/260/52
f 176/269/67 161/270/67 162/251/67 174/252/67 178/271/67
f 174/252/67 173/253/67 177/272/67 176/269/67 178/271/67
f 173/253/69 194/253/69 198/271/69 178/271/69
f 173/253/67 178/271/67 177/272/67
f 154/265/55 192/265/55 191/247/55 152/247/55
f 140/254/64 185/254/64 183/216/64 138/216/64
f 175/245/70 195/245/70 182/244/70 133/244/70
f 156/267/56 193/267/56 192/265/56 154/265/56
f 142/256/65 186/256/65 185/254/65 140/254/65
f 129/239/58 179/239/58 180/238/58 127/238/58
f 127/238/57 180/238/57 193/267/57 156/267/57
f 177/272/69 197/272/69 196/269/69 176/269/69
f 144/258/50 187/258/50 186/256/50 142/256/50
f 176/269/71 196/269/71 195/245/71 175/245/71
f 131/242/59 181/242/59 179/239/59 129/239/59
f 178/271/72 198/271/72 197/272/72 177/272/72
f 146/260/51 188/260/51 187/258/51 144/258/51
f 133/244/60 182/244/60 181/242/60 131/242/60
